<svg width="122" height="173" viewBox="0 0 122 173" fill="none" xmlns="http://www.w3.org/2000/svg">
<path fill-rule="evenodd" clip-rule="evenodd" d="M42.321 2.25155C40.2481 6.10255 36.4606 10.3262 30.7635 15.1417C28.2259 17.2857 25.3284 20.2315 24.3236 21.6879C18.1749 30.599 8.73625 55.2411 2.98221 77.4072C0.00680447 88.8695 -0.574964 93.2662 0.501004 96.162C1.28068 98.262 9.13945 107.147 17.3258 115.186L22.0238 119.799L21.0928 124.239C20.3666 127.7 20.2284 130.565 20.465 137.237C20.8085 146.929 22.2262 153.034 25.3626 158.332C28.2481 163.206 29.9059 163.878 27.9461 159.38C23.8083 149.882 22.4702 130.77 25.4183 123.277L25.983 121.841L29.3372 124.042C35.7037 128.22 55.0745 136.831 60.981 138.109C61.9119 138.31 65.7443 139.933 69.4977 141.715C78.1163 145.807 82.9098 146.844 91.6569 146.507C96.4248 146.324 98.5813 145.985 100.634 145.099C102.12 144.458 103.335 143.734 103.335 143.49C103.334 143.247 99.432 143.021 94.6624 142.989C83.5473 142.915 79.2952 142.034 71.4882 138.187C68.2039 136.568 63.5975 134.688 61.2517 134.01C52.5859 131.502 37.8585 124.797 29.5396 119.573C23.4353 115.739 19.6449 112.514 15.8694 107.94C14.0922 105.788 10.8836 102.241 8.73853 100.058C3.77895 95.0117 3.45992 93.8455 5.01017 86.4392C8.67654 68.9297 18.06 41.8436 24.952 28.8771C27.3712 24.3259 28.9397 22.2463 33.1901 17.9534C40.7372 10.3317 44.6708 4.05147 44.1038 0.53078C43.9429 -0.466181 43.6136 -0.147969 42.321 2.25155ZM67.5079 11.0033C64.5581 12.9433 63.3678 14.8894 63.08 18.243C62.8633 20.7712 63.0573 21.6511 64.2669 23.6247C66.242 26.848 69.9646 30.1972 78.0281 36.0053C90.6645 45.1077 94.6311 50.603 94.0852 58.2512C93.434 67.3771 86.902 73.2957 75.2819 75.2869C71.123 75.9997 71.7344 76.8351 76.6962 77.2187C87.4519 78.0497 96.3611 70.9033 98.318 59.8747C98.9026 56.5804 98.8576 55.5911 97.9784 52.453C96.0801 45.6765 92.4997 41.6507 80.925 33.2804C73.2539 27.7329 68.9575 23.9742 67.7473 21.7522C66.4404 19.3532 66.7259 15.4396 68.4104 12.6614C69.2202 11.3264 69.7724 10.1283 69.6382 9.99861C69.504 9.86891 68.5452 10.3212 67.5079 11.0033ZM42.8311 23.0503C47.9044 30.3357 47.0929 36.1196 38.3714 54.8376C31.2468 70.1279 29.9713 74.4966 30.0259 83.4165L30.0611 89.1872L31.9571 82.2579C34.1335 74.3064 35.0366 72.0124 42.2113 56.2116C49.1487 40.933 49.544 39.7101 49.4956 33.6783C49.4376 26.4545 47.0912 22.0396 42.6565 20.8107L40.9402 20.3348L42.8311 23.0503ZM94.3803 74.4856C96.2968 76.424 98.1883 80.4602 98.2042 82.6476C98.2224 85.1147 97.1772 87.7929 95.276 90.149C93.2623 92.6458 93.7917 92.7705 96.9321 90.5386L99.283 88.8679L102.347 91.8291C115.028 104.083 120.951 125.702 115.829 141.027C112.853 149.929 107.441 157.498 97.3518 166.872C93.7235 170.243 90.9181 173 91.1166 173C91.9202 173 99.3098 168.048 102.873 165.122C110.677 158.711 118.236 147.495 120.712 138.65C122.01 134.014 122.399 125.483 121.546 120.367C120.589 114.632 118.053 107.322 115.145 101.921C112.377 96.7792 106.772 90.7062 102.806 88.5518L100.163 87.1157L100.387 83.7094C100.664 79.5182 99.2478 76.4388 96.0927 74.3669C93.3089 72.5389 92.5099 72.5944 94.3803 74.4856ZM32.2483 90.2869C32.2483 91.4971 43.0961 104.954 48.1086 109.962C52.1116 113.962 58.1273 117.718 67.7882 122.251L75.324 125.787L78.9511 124.415C84.2701 122.405 86.5142 121.947 93.9203 121.364C100.381 120.855 102.853 120.103 101.709 118.998C101.414 118.712 97.3722 118.455 92.7277 118.425C84.9241 118.375 83.9442 118.485 79.8064 119.871L75.3297 121.371L68.7573 118.317C58.7801 113.681 53.8604 110.249 46.9689 103.118C41.5379 97.4975 32.2483 89.4004 32.2483 90.2869Z" fill="#00D2A0"/>
</svg>
